<svg width="30" height="23" viewBox="0 0 30 23" fill="none" xmlns="http://www.w3.org/2000/svg">
<path fill-rule="evenodd" clip-rule="evenodd" d="M9.40021 0.48297C10.225 0.22804 11.1003 0.689965 11.3552 1.51474L12.2044 4.26186C13.0538 4.1041 13.9581 4.01625 14.9184 4.01625C15.8784 4.01625 16.7824 4.10403 17.6316 4.2617L18.4807 1.51474C18.7356 0.689965 19.6109 0.22804 20.4357 0.48297C21.2603 0.737921 21.7224 1.61319 21.4675 2.43796L20.6225 5.17154C22.2476 5.87327 23.5948 6.82032 24.6783 7.79894L26.7316 5.74562C27.342 5.13517 28.3318 5.13517 28.9422 5.74562C29.5527 6.35603 29.5527 7.34572 28.9422 7.95616L26.7908 10.1076C27.0984 10.5141 27.3583 10.8957 27.5725 11.2345C27.831 11.643 28.0269 11.9955 28.1628 12.2624C28.2303 12.3947 28.2868 12.5134 28.3301 12.6129C28.351 12.6608 28.3747 12.7176 28.3964 12.7765C28.4066 12.8044 28.4229 12.8505 28.4389 12.9061C28.4468 12.9337 28.4591 12.9787 28.4704 13.0345C28.4785 13.0746 28.5023 13.1952 28.5023 13.351C28.5023 13.5069 28.4785 13.6275 28.4704 13.6676C28.4591 13.7233 28.4468 13.7684 28.4389 13.796C28.4229 13.8515 28.4066 13.8976 28.3964 13.9255C28.3747 13.9844 28.351 14.0413 28.3301 14.0891C28.2868 14.1886 28.2303 14.3074 28.1628 14.4397C28.0269 14.7066 27.831 15.059 27.5725 15.4676C27.0567 16.2833 26.2758 17.3476 25.2023 18.4082C23.0473 20.5368 19.6681 22.6859 14.9184 22.6859C10.1688 22.6859 6.7896 20.5368 4.63468 18.4082C3.56104 17.3476 2.78018 16.2833 2.26424 15.4676C2.00584 15.059 1.80991 14.7066 1.674 14.4397C1.6066 14.3074 1.55017 14.1886 1.50678 14.0891C1.4859 14.0413 1.46217 13.9844 1.44056 13.9255C1.43033 13.8976 1.414 13.8515 1.39802 13.796C1.39009 13.7684 1.37783 13.7233 1.36649 13.6676C1.35834 13.6275 1.33449 13.5069 1.33449 13.351C1.33449 13.1952 1.35834 13.0746 1.36649 13.0345C1.37783 12.9787 1.39009 12.9337 1.39802 12.9061C1.414 12.8505 1.43033 12.8044 1.44056 12.7765C1.46217 12.7176 1.4859 12.6608 1.50678 12.6129C1.55017 12.5134 1.6066 12.3947 1.674 12.2623C1.80991 11.9955 2.00584 11.643 2.26424 11.2345C2.47842 10.8959 2.73825 10.5144 3.04574 10.1081L0.893732 7.95616C0.283307 7.34572 0.283307 6.35603 0.893732 5.74562C1.50416 5.13517 2.49386 5.13517 3.10428 5.74562L5.15808 7.79942C6.24149 6.82079 7.58851 5.87371 9.21354 5.17192L8.36845 2.43796C8.1135 1.61319 8.57544 0.737921 9.40021 0.48297ZM13.9322 17.6519C16.3078 18.1959 18.6747 16.7111 19.2186 14.3354C19.7626 11.9598 18.2778 9.59299 15.9021 9.04902C13.5265 8.50504 11.1597 9.98987 10.6157 12.3655C10.0717 14.7411 11.5566 17.108 13.9322 17.6519Z" fill="white"/>
</svg>
