<svg width="32" height="32" viewBox="0 0 32 32" fill="none" xmlns="http://www.w3.org/2000/svg">
<path d="M10.2887 14.873C12.1235 16 13.7133 17.4918 14.9601 19.2558C15.3412 19.7948 15.6896 20.361 15.9999 20.9436C16.3103 20.3556 16.6587 19.7948 17.0398 19.2558C18.2866 17.4918 19.8764 16 21.7112 14.873C24.1448 13.3758 27.0032 12.5156 30.0466 12.5156H30.5856C31.1899 12.5156 31.6799 13.0056 31.6799 13.6099C31.6799 21.6677 25.1521 28.1956 17.0943 28.1956H14.9056C6.84784 28.1956 0.319946 21.6677 0.319946 13.6099C0.319946 13.0056 0.809946 12.5156 1.41428 12.5156H1.95328C4.99672 12.5156 7.85506 13.3758 10.2887 14.873ZM16.7349 4.10933C17.5897 5.02944 20.0615 8.01844 21.3301 13.0709C19.2612 14.2469 17.4427 15.8367 15.9999 17.7313C14.5572 15.8367 12.7387 14.2523 10.6698 13.0709C11.9329 8.01844 14.4047 5.02944 15.2649 4.10933C15.4555 3.90789 15.7223 3.80444 15.9999 3.80444C16.2776 3.80444 16.5444 3.90789 16.7349 4.10933Z" fill="white"/>
</svg>
