<svg width="25" height="27" viewBox="0 0 25 27" fill="none" xmlns="http://www.w3.org/2000/svg">
<path fill-rule="evenodd" clip-rule="evenodd" d="M24.6428 18.6604C24.6428 24.3229 19.5138 26.867 12.333 26.867C5.15228 26.867 0.0231934 24.3229 0.0231934 18.7015C0.0231934 13.3202 2.37562 10.2599 7.08044 7.49138C10.1844 9.83225 14.4945 9.82969 17.5958 7.48374C22.2938 10.2233 24.6428 13.2831 24.6428 18.6604ZM15.6534 5.92973L18.0726 2.14925C18.1772 1.94852 18.229 1.72451 18.2229 1.49829C18.217 1.27206 18.1536 1.05108 18.0387 0.856123C17.9238 0.661172 17.7611 0.498672 17.5661 0.383921C17.371 0.26917 17.15 0.205943 16.9238 0.200192H8.22484C7.98352 0.195605 7.7455 0.256594 7.53612 0.376654C7.32675 0.496715 7.15389 0.671348 7.03596 0.881931C6.91803 1.09251 6.85946 1.33115 6.86651 1.5724C6.87354 1.81366 6.94592 2.04848 7.07592 2.25182L9.07036 5.96464C11.092 7.17549 13.6419 7.16385 15.6534 5.92973Z" fill="white"/>
</svg>
