<svg width="32" height="32" viewBox="0 0 32 32" fill="none" xmlns="http://www.w3.org/2000/svg">
<path d="M8.50004 27.4334V16.2001H11.2667C11.3778 16.2001 11.4945 16.2112 11.6167 16.2334C11.7389 16.2556 11.8556 16.2889 11.9667 16.3334L20.1334 19.4001C20.7112 19.6223 21.2 19.9667 21.6 20.4334C22 20.9001 22.2 21.4334 22.2 22.0334C22.2 22.2112 22.1445 22.3556 22.0334 22.4667C21.9222 22.5779 21.7778 22.6334 21.6 22.6334H19.1667C18.6556 22.6334 18.15 22.5945 17.65 22.5167C17.15 22.4389 16.6556 22.3223 16.1667 22.1667L13.7334 21.3667L13.4 22.3001L15.9 23.1667C16.4778 23.3667 17.0778 23.4945 17.7 23.5501C18.3222 23.6056 18.9445 23.6334 19.5667 23.6334H26.0667C27 23.6334 27.7778 23.9834 28.4 24.6834C29.0222 25.3834 29.3334 26.2223 29.3334 27.2001L18.9 30.4001L8.50004 27.4334ZM1.33337 29.3334V16.2001H6.46671V29.3334H1.33337ZM21.5334 16.8001L16.0667 11.4667C15.4 10.8223 14.8445 10.1056 14.4 9.31675C13.9556 8.52788 13.7334 7.66675 13.7334 6.73341C13.7334 5.60008 14.1278 4.63897 14.9167 3.85008C15.7056 3.06119 16.6667 2.66675 17.8 2.66675C18.5556 2.66675 19.2445 2.86119 19.8667 3.25008C20.4889 3.63897 21.0445 4.1223 21.5334 4.70008C22.0222 4.1223 22.5778 3.63897 23.2 3.25008C23.8222 2.86119 24.5112 2.66675 25.2667 2.66675C26.4 2.66675 27.3612 3.06119 28.15 3.85008C28.9389 4.63897 29.3334 5.60008 29.3334 6.73341C29.3334 7.66675 29.1112 8.52788 28.6667 9.31675C28.2222 10.1056 27.6667 10.8223 27 11.4667L21.5334 16.8001Z" fill="white"/>
</svg>
