<svg width="32" height="32" viewBox="0 0 32 32" fill="none" xmlns="http://www.w3.org/2000/svg">
<path d="M30.2279 26.24H19.84V28.8H30.3341C30.5653 28.811 30.7934 28.7423 30.9801 28.6055C31.1668 28.4686 31.3009 28.2718 31.36 28.048V27.4272C31.36 27.4272 31.3523 26.24 30.2279 26.24ZM28.7911 25.7344C29.473 25.7333 30.1266 25.4616 30.6083 24.979C31.09 24.4963 31.3604 23.8422 31.36 23.1603C31.36 21.735 30.208 20.5856 28.7911 20.5856C28.4536 20.5861 28.1196 20.6532 27.8081 20.7829C27.4966 20.9127 27.2137 21.1025 26.9756 21.3416C26.7375 21.5808 26.5489 21.8644 26.4205 22.1765C26.292 22.4885 26.2264 22.8228 26.2272 23.1603C26.2272 24.5804 27.376 25.7344 28.7911 25.7344ZM23.3805 25.6C24.7283 25.6 25.8125 24.6502 25.8125 23.3043C25.8119 21.9609 24.7239 21.2563 23.3863 21.246L19.84 21.6953V25.6H23.3805ZM11.8547 8.91707C13.4285 8.91707 14.7015 7.63707 14.7015 6.05819C14.7015 4.47931 13.4285 3.19995 11.8547 3.19995C10.2823 3.19995 9.00738 4.47931 9.00738 6.05819C9.00738 7.63707 10.2823 8.91707 11.8547 8.91707ZM8.94786 18.1689L8.92226 18.1318L7.63202 15.1276L7.6301 21.12H11.4861L12.3283 20.224L10.0442 19.3446C9.50274 19.1411 9.1181 18.6803 8.94786 18.1689ZM9.76514 17.8995C9.88994 18.1798 10.121 18.407 10.4115 18.5113L14.8128 20.1427C14.9469 20.2015 15.0913 20.2333 15.2378 20.2363C15.3842 20.2392 15.5297 20.2132 15.6661 20.1599C15.8025 20.1065 15.927 20.0267 16.0325 19.9251C16.138 19.8236 16.2224 19.7022 16.281 19.568C16.3998 19.2956 16.4062 18.9874 16.2988 18.7104C16.1914 18.4333 15.9789 18.21 15.7075 18.0889L11.6467 16.5555L10.3923 13.5468L11.2103 13.2422L12.2733 15.8201L15.36 16.9644V13.8144L16.9984 14.7891L17.8151 18.903C17.8621 19.0422 17.9362 19.1707 18.0332 19.281C18.1302 19.3914 18.2481 19.4814 18.3801 19.5459C18.5121 19.6105 18.6556 19.6482 18.8023 19.6569C18.9489 19.6656 19.0959 19.6452 19.2346 19.5968C19.5139 19.4974 19.7428 19.2919 19.8716 19.0248C20.0004 18.7577 20.0187 18.4507 19.9226 18.1702L19.0074 14.208C18.9472 13.9887 18.8218 13.7929 18.6477 13.6467C18.1786 13.127 15.8061 10.4742 15.6371 10.2969C15.3895 10.0486 14.8231 9.59995 13.753 9.59995H9.91298C7.73058 9.59995 7.31074 11.8272 7.75682 12.96L9.76514 17.8995ZM19.2 21.76H1.89889C1.26913 21.76 0.640015 22.1152 0.640015 22.8966V28.8H19.2V21.76Z" fill="white"/>
</svg>
